<?xml version="1.0" encoding="UTF-8"?>
<!DOCTYPE svg PUBLIC "-//W3C//DTD SVG 1.0//EN" "http://www.w3.org/TR/2001/REC-SVG-20010904/DTD/svg10.dtd">
<!-- Creator: CorelDRAW -->
<svg xmlns="http://www.w3.org/2000/svg" xml:space="preserve" width="194.307mm" height="224.367mm" version="1.0" style="shape-rendering:geometricPrecision; text-rendering:geometricPrecision; image-rendering:optimizeQuality; fill-rule:evenodd; clip-rule:evenodd"
viewBox="0 0 19430.66 22436.66"
 xmlns:xlink="http://www.w3.org/1999/xlink"
 xmlns:xodm="http://www.corel.com/coreldraw/odm/2003">
 <defs>
  <style type="text/css">
   <![CDATA[
    .fil6 {fill:url(#id0)}
    .fil12 {fill:url(#id1)}
    .fil20 {fill:url(#id2)}
    .fil22 {fill:url(#id3)}
    .fil16 {fill:url(#id4)}
    .fil14 {fill:url(#id5)}
    .fil5 {fill:url(#id6)}
    .fil15 {fill:url(#id7)}
    .fil10 {fill:url(#id8)}
    .fil17 {fill:url(#id9)}
    .fil2 {fill:url(#id10)}
    .fil3 {fill:url(#id11)}
    .fil23 {fill:url(#id12)}
    .fil9 {fill:url(#id13)}
    .fil13 {fill:url(#id14)}
    .fil11 {fill:url(#id15)}
    .fil1 {fill:url(#id16)}
    .fil19 {fill:url(#id17)}
    .fil8 {fill:url(#id18)}
    .fil0 {fill:url(#id19)}
    .fil7 {fill:url(#id20)}
    .fil21 {fill:url(#id21)}
    .fil4 {fill:url(#id22)}
    .fil18 {fill:url(#id23)}
   ]]>
  </style>
  <linearGradient id="id0" gradientUnits="userSpaceOnUse" x1="6743.97" y1="15487.73" x2="3933.04" y2="15487.73">
   <stop offset="0" style="stop-opacity:1; stop-color:#2776B1"/>
   <stop offset="1" style="stop-opacity:1; stop-color:#2877B2"/>
  </linearGradient>
  <linearGradient id="id1" gradientUnits="userSpaceOnUse" x1="1261.94" y1="19084.41" x2="9690.52" y2="19084.41">
   <stop offset="0" style="stop-opacity:1; stop-color:#1B265C"/>
   <stop offset="1" style="stop-opacity:1; stop-color:#162055"/>
  </linearGradient>
  <linearGradient id="id2" gradientUnits="userSpaceOnUse" x1="15485.18" y1="6917.17" x2="12674.25" y2="6917.17">
   <stop offset="0" style="stop-opacity:1; stop-color:#44C0D8"/>
   <stop offset="1" style="stop-opacity:1; stop-color:#40BED7"/>
  </linearGradient>
  <linearGradient id="id3" gradientUnits="userSpaceOnUse" x1="7492.71" y1="7854.88" x2="9739.6" y2="4252.26">
   <stop offset="0" style="stop-opacity:1; stop-color:#20275E"/>
   <stop offset="1" style="stop-opacity:1; stop-color:#354E84"/>
  </linearGradient>
  <linearGradient id="id4" gradientUnits="userSpaceOnUse" x1="2073.12" y1="13509.94" x2="159.5" y2="15197.43">
   <stop offset="0" style="stop-opacity:1; stop-color:#2A6BA5"/>
   <stop offset="1" style="stop-opacity:1; stop-color:#4DC5D3"/>
  </linearGradient>
  <linearGradient id="id5" gradientUnits="userSpaceOnUse" x1="17644.79" y1="9668.55" x2="18978.83" y2="6587.11">
   <stop offset="0" style="stop-opacity:1; stop-color:#3D83B7"/>
   <stop offset="0.501961" style="stop-opacity:1; stop-color:#76D4DE"/>
   <stop offset="1" style="stop-opacity:1; stop-color:#AFEAF0"/>
  </linearGradient>
  <linearGradient id="id6" gradientUnits="userSpaceOnUse" x1="3070.89" y1="13448.56" x2="12569.77" y2="10604.79">
   <stop offset="0" style="stop-opacity:1; stop-color:#4D6D96"/>
   <stop offset="1" style="stop-opacity:1; stop-color:#95B0C5"/>
  </linearGradient>
  <linearGradient id="id7" gradientUnits="userSpaceOnUse" x1="-190.79" y1="13263.55" x2="2423.41" y2="13940.1">
   <stop offset="0" style="stop-opacity:1; stop-color:#466790"/>
   <stop offset="1" style="stop-opacity:1; stop-color:#66ADC9"/>
  </linearGradient>
  <linearGradient id="id8" gradientUnits="userSpaceOnUse" x1="6724.12" y1="12972.38" x2="8424.4" y2="22453.48">
   <stop offset="0" style="stop-opacity:1; stop-color:#66ABCC"/>
   <stop offset="1" style="stop-opacity:1; stop-color:#3F5378"/>
  </linearGradient>
  <linearGradient id="id9" gradientUnits="userSpaceOnUse" x1="5708.52" y1="3354.72" x2="291.76" y2="13275.73">
   <stop offset="0" style="stop-opacity:1; stop-color:#C3D6E5"/>
   <stop offset="1" style="stop-opacity:1; stop-color:#5E7FA2"/>
  </linearGradient>
  <linearGradient id="id10" gradientUnits="userSpaceOnUse" x1="16647.29" y1="5825.74" x2="11252.67" y2="879.98">
   <stop offset="0" style="stop-opacity:1; stop-color:#7FD0ED"/>
   <stop offset="1" style="stop-opacity:1; stop-color:#2D89CD"/>
  </linearGradient>
  <linearGradient id="id11" gradientUnits="userSpaceOnUse" x1="19958.41" y1="11946.52" x2="12897.55" y2="16288.57">
   <stop offset="0" style="stop-opacity:1; stop-color:#AECEDB"/>
   <stop offset="1" style="stop-opacity:1; stop-color:#4D6D96"/>
  </linearGradient>
  <linearGradient id="id12" gradientUnits="userSpaceOnUse" x1="13351.78" y1="8106.75" x2="10236.73" y2="15362.66">
   <stop offset="0" style="stop-opacity:1; stop-color:#3FC1D9"/>
   <stop offset="1" style="stop-opacity:1; stop-color:#2E9ECC"/>
  </linearGradient>
  <linearGradient id="id13" gradientUnits="userSpaceOnUse" x1="9181.49" y1="14298.15" x2="6066.44" y2="7042.24">
   <stop offset="0" style="stop-opacity:1; stop-color:#236BBD"/>
   <stop offset="1" style="stop-opacity:1; stop-color:#2374C6"/>
  </linearGradient>
  <linearGradient id="id14" gradientUnits="userSpaceOnUse" x1="16965.47" y1="9216.41" x2="19658.15" y2="8427.78">
   <stop offset="0" style="stop-opacity:1; stop-color:#5A97B6"/>
   <stop offset="0.780392" style="stop-opacity:1; stop-color:#A9F0F6"/>
   <stop offset="1" style="stop-opacity:1; stop-color:#9CF1F6"/>
  </linearGradient>
  <linearGradient id="id15" gradientUnits="userSpaceOnUse" x1="9680.95" y1="19669.44" x2="14337.74" y2="16817.81">
   <stop offset="0" style="stop-opacity:1; stop-color:#2D4794"/>
   <stop offset="1" style="stop-opacity:1; stop-color:#31A1D3"/>
  </linearGradient>
  <linearGradient id="id16" gradientUnits="userSpaceOnUse" x1="5088.47" y1="2767.83" x2="9745.26" y2="5619.46">
   <stop offset="0" style="stop-opacity:1; stop-color:#7ED9E7"/>
   <stop offset="1" style="stop-opacity:1; stop-color:#3683B7"/>
  </linearGradient>
  <linearGradient id="id17" gradientUnits="userSpaceOnUse" x1="11792.76" y1="17602.19" x2="11403.02" y2="3154.26">
   <stop offset="0" style="stop-opacity:1; stop-color:#5D8AA9"/>
   <stop offset="1" style="stop-opacity:1; stop-color:#C6DEEA"/>
  </linearGradient>
  <linearGradient id="id18" gradientUnits="userSpaceOnUse" x1="11907.34" y1="18176.41" x2="9696.79" y2="14526.25">
   <stop offset="0" style="stop-opacity:1; stop-color:#1B255A"/>
   <stop offset="1" style="stop-opacity:1; stop-color:#37568D"/>
  </linearGradient>
  <linearGradient id="id19" gradientUnits="userSpaceOnUse" x1="9897.04" y1="-27.35" x2="13806.86" y2="9476.03">
   <stop offset="0" style="stop-opacity:1; stop-color:#E4EEF5"/>
   <stop offset="0.490196" style="stop-opacity:1; stop-color:#B7ECF3"/>
   <stop offset="1" style="stop-opacity:1; stop-color:#5B7BA1"/>
  </linearGradient>
  <linearGradient id="id20" gradientUnits="userSpaceOnUse" x1="8632.14" y1="15963.25" x2="6351.22" y2="18519.17">
   <stop offset="0" style="stop-opacity:1; stop-color:#253572"/>
   <stop offset="1" style="stop-opacity:1; stop-color:#4971A5"/>
  </linearGradient>
  <linearGradient id="id21" gradientUnits="userSpaceOnUse" x1="13067" y1="6441.65" x2="10786.08" y2="3885.73">
   <stop offset="0" style="stop-opacity:1; stop-color:#4D7FB0"/>
   <stop offset="1" style="stop-opacity:1; stop-color:#5280B1"/>
  </linearGradient>
  <linearGradient id="id22" gradientUnits="userSpaceOnUse" x1="14088.2" y1="10201.76" x2="19470.49" y2="16889.05">
   <stop offset="0" style="stop-opacity:1; stop-color:#3D5F93"/>
   <stop offset="1" style="stop-opacity:1; stop-color:#242D65"/>
  </linearGradient>
  <linearGradient id="id23" gradientUnits="userSpaceOnUse" x1="24" y1="9918.08" x2="5273.55" y2="7856.66">
   <stop offset="0" style="stop-opacity:1; stop-color:#233479"/>
   <stop offset="1" style="stop-opacity:1; stop-color:#285FB1"/>
  </linearGradient>
 </defs>
 <g id="Katman_x0020_1">
  <metadata id="CorelCorpID_0Corel-Layer"/>
  <path class="fil0" d="M16882.86 6691.2l2077.28 -1230.62 -9245.6 -5460.28 -1397 829.02c-4207.93,2260.59 -4741.33,6697.13 -1380.07,8619.06 -1066.8,-1388.53 -1408.93,-4449.3 1574.8,-6231.46l1202.27 -718.11 7168.32 4192.39zm-10940.23 1512.41c-415.38,-3039.53 788.99,-4253.23 3031.06,-5647.26l745.07 -434.13 7157.69 4175.83 1419.04 -837.64 -8573.83 -5061.35 0.01 -6.21 -1989.67 1170.74c-2313.59,1361.34 -3622.04,4473.82 -1789.37,6640.02z"/>
  <path class="fil1" d="M5819.87 7890.51c-415.38,-3039.53 1430.87,-4368.8 3064.94,-5384.8l795.86 -479.58 0 -1529.35 -2032 1213.07c-1714.22,1023.36 -3496.73,3920.06 -1828.8,6180.66z"/>
  <polygon class="fil2" points="9735.69,490.72 9735.69,2056.81 16876.45,6215 18164.27,5460.58 "/>
  <path class="fil3" d="M13637.61 9057.15l2025.12 -1166.84c2640.62,1311.24 3766.68,4065.5 3766.68,6673.14l0 2260.18 -6002.86 3521.15 2142.07 -2379.13c725.11,-805.36 1253.06,-1634.07 1496.61,-2574.96 738.43,-2852.72 -926.14,-5562.58 -3427.62,-6333.54zm761.82 -38.79l1270.28 -751.78c2177.4,1048.53 3382.84,3646.17 3398.09,6096.8l14.22 2283.09 -3957.96 2299.7c1261.81,-1270.98 2328.56,-3083.33 2446.84,-4333.32 257.49,-2721.05 -1352.83,-4762.94 -3171.47,-5594.49z"/>
  <path class="fil4" d="M14544.15 9007.91l1126.06 -670.15c2147.69,1034.22 3326.75,3596.38 3335.86,6013.6l8.47 2246.36 -3649.11 2155.32c1244.58,-1253.64 2152.39,-2907.28 2269.05,-4140.19 253.96,-2683.92 -1296.51,-4784.74 -3090.33,-5604.94z"/>
  <path class="fil5" d="M3119.35 15567.26l2931.81 -1731.23c-35.32,529.87 100.14,987.07 515.01,1283.4l2294.47 1346.2c1255.5,732.42 2381.21,-1122.57 973.67,-1901.35l-4546.6 -2599.18c-2390.51,-1380.16 -2805.05,-4516.46 -948.27,-7166.53 -541.87,2396.06 587.92,4511.03 2153.51,5450.8l4408.16 2536.04c2091.76,1105.46 2207.22,4153.06 59.26,5432.82l-1511.29 1036.55 -6329.73 -3687.52zm2362.69 982.5l3986.76 2261.8 1301.97 -878.63c1622.07,-1094.65 1669.14,-2741.48 942.81,-3999.52 -207.09,-358.69 -562.85,-652.67 -1045.45,-898.2l-4209.85 -2411.79c-1516.08,-875.05 -2463.75,-2514.39 -2599.43,-4176.05 -468.23,1210.24 -819,3824.84 1640.03,5264.25l4347.36 2489.2c323.24,160.58 584.18,362.75 653.91,454.08 572.25,580.32 427.13,2191.92 -1026.16,2294.07 -177.8,0 -404.51,0.53 -748.2,-197.9l-1839.34 -1045.08c-554.31,-319.42 -1016.51,-681.85 -1134.99,-1304.1l-1952.25 1167.85 1682.83 980.02z"/>
  <path class="fil6" d="M3933.04 15568.17l1540.93 897.46 1270 -760.28c-524.93,-306.52 -927.26,-596.08 -1041.4,-1195.52l-1769.53 1058.34z"/>
  <path class="fil7" d="M6811.7 15743.85l-1270 764.11 3899.96 2230.61 0 -1720.42c-177.8,-16.76 -440.53,-6.95 -784.22,-205.38l-1845.74 -1068.92z"/>
  <path class="fil8" d="M9499.55 17012.06l4.56 1705.7 1236.13 -846.66c1505.23,-1030.97 1674.59,-2628.16 948.26,-3886.2l-1126.06 643.47c592.67,677.33 390.4,2281.54 -1062.89,2383.69z"/>
  <path class="fil9" d="M10503.17 14602.96l1151.46 -651.93c-267.8,-425.93 -567.26,-626.89 -1049.86,-872.42l-4199.46 -2409.07c-1261.54,-728.13 -2319.87,-2154.11 -2573.87,-3932.11 -321.74,939.8 -700.93,3507.84 1684.86,4885.27l4347.36 2489.2c323.24,160.58 497.09,304.51 639.51,491.06z"/>
  <path class="fil10" d="M2543.35 15746.07l-2077.28 1230.62 9245.6 5460.28 1397 -829.02c4207.93,-2260.59 4741.33,-6697.13 1380.07,-8619.06 1066.8,1388.53 1408.93,4449.3 -1574.8,6231.46l-1202.27 718.11 -7168.32 -4192.39zm10940.23 -1512.41c415.38,3039.53 -788.99,4253.23 -3031.06,5647.26l-745.07 434.13 -7157.69 -4175.83 -1419.04 837.64 8573.83 5061.35 -0.01 6.21 1989.67 -1170.74c2313.59,-1361.34 3622.04,-4473.82 1789.37,-6640.02z"/>
  <path class="fil11" d="M13606.34 14546.76c415.38,3039.53 -1430.87,4368.8 -3064.94,5384.8l-795.86 479.58 0 1529.35 2032 -1213.07c1714.22,-1023.36 3496.73,-3920.06 1828.8,-6180.66z"/>
  <polygon class="fil12" points="9690.52,21946.55 9690.52,20380.46 2549.76,16222.27 1261.94,16976.69 "/>
  <path class="fil13" d="M19429.41 12039.43l0 -6434.67 -2235.2 1320.8 0 1253.62c1032.93,922.32 1744.13,2268.52 2235.2,3860.25zm-338.78 -5833.01l0 3999.81c-406.1,-775.29 -920.94,-1577.01 -1557.78,-2158.47l-3.66 -930.18 1561.44 -911.16z"/>
  <path class="fil14" d="M19023.01 6324.43l0 3606.8c-372.53,-711.2 -838.2,-1380.07 -1422.4,-1913.47l0 -863.36 1422.4 -829.97z"/>
  <path class="fil15" d="M-1.29 10378.23l0 6447.19 2235.2 -1320.8 0 -1188.93c-1032.93,-922.32 -1828.8,-2345.73 -2235.2,-3937.46zm333.94 5847.21l0 -3906.54c381.51,772.88 911.68,1537.83 1566.84,2136.02l0 859.87 -1566.84 910.65z"/>
  <path class="fil16" d="M405.11 16105.75l0 -3504.13c372.53,711.2 838.2,1350.31 1422.4,1883.71l0 790.45 -1422.4 829.97z"/>
  <path class="fil17" d="M5790.51 13375.62l-2025.12 1166.84c-2640.62,-1311.24 -3766.68,-4065.5 -3766.68,-6673.14l0 -2260.18 6002.86 -3521.15 -2142.07 2379.13c-725.11,805.36 -1253.06,1634.07 -1496.61,2574.96 -738.43,2852.72 926.14,5562.58 3427.62,6333.54zm-761.82 38.79l-1270.28 751.78c-2177.4,-1048.53 -3382.84,-3646.17 -3398.09,-6096.8l-14.22 -2283.09 3957.96 -2299.7c-1261.81,1270.98 -2328.56,3083.33 -2446.84,4333.32 -257.49,2721.05 1352.83,4762.94 3171.47,5594.49z"/>
  <path class="fil18" d="M4883.97 13424.86l-1126.06 670.15c-2147.69,-1034.22 -3326.75,-3596.38 -3335.86,-6013.6l-8.47 -2246.36 3649.11 -2155.32c-1244.58,1253.64 -2152.39,2907.28 -2269.05,4140.19 -253.96,2683.92 1296.51,4784.74 3090.33,5604.94z"/>
  <path class="fil19" d="M16298.87 6837.64l-2931.81 1731.23c35.32,-529.87 -100.14,-987.07 -515.01,-1283.4l-2294.47 -1346.2c-1255.5,-732.42 -2381.21,1122.57 -973.67,1901.35l4546.6 2599.18c2390.51,1380.16 2805.05,4516.46 948.27,7166.53 541.87,-2396.06 -587.92,-4511.03 -2153.51,-5450.8l-4408.16 -2536.04c-2091.76,-1105.46 -2207.22,-4153.06 -59.26,-5432.82l1511.29 -1036.55 6329.73 3687.52zm-2362.69 -982.5l-3986.76 -2261.8 -1301.97 878.63c-1622.07,1094.65 -1669.14,2741.48 -942.81,3999.52 207.09,358.69 562.85,652.67 1045.45,898.2l4209.85 2411.79c1516.08,875.05 2463.75,2514.39 2599.43,4176.05 468.23,-1210.24 819,-3824.84 -1640.03,-5264.25l-4347.36 -2489.2c-323.24,-160.58 -584.18,-362.75 -653.91,-454.08 -572.25,-580.32 -427.13,-2191.92 1026.16,-2294.07 177.8,0 404.51,-0.53 748.2,197.9l1839.34 1045.08c554.31,319.42 1016.51,681.85 1134.99,1304.1l1952.25 -1167.85 -1682.83 -980.02z"/>
  <path class="fil20" d="M15485.18 6836.73l-1540.93 -897.46 -1270 760.28c524.93,306.52 927.26,596.08 1041.4,1195.52l1769.53 -1058.34z"/>
  <path class="fil21" d="M12606.52 6661.05l1270 -764.11 -3899.96 -2230.61 0 1720.42c177.8,16.76 440.53,6.95 784.22,205.38l1845.74 1068.92z"/>
  <path class="fil22" d="M9918.67 5392.84l-4.56 -1705.7 -1236.13 846.66c-1505.23,1030.97 -1674.59,2628.16 -948.26,3886.2l1126.06 -643.47c-592.67,-677.33 -390.4,-2281.54 1062.89,-2383.69z"/>
  <path class="fil23" d="M8915.05 7801.94l-1151.46 651.93c267.8,425.93 567.26,626.89 1049.86,872.42l4199.46 2409.07c1261.54,728.13 2319.87,2154.11 2573.87,3932.11 321.74,-939.8 700.93,-3507.84 -1684.86,-4885.27l-4347.36 -2489.2c-323.24,-160.58 -497.09,-304.51 -639.51,-491.06z"/>
 </g>
</svg>
